<?xml version="1.0" standalone="no"?>
<!DOCTYPE svg PUBLIC "-//W3C//DTD SVG 20010904//EN"
 "http://www.w3.org/TR/2001/REC-SVG-20010904/DTD/svg10.dtd">
<svg version="1.0" xmlns="http://www.w3.org/2000/svg"
 width="200.000000pt" height="209.000000pt" viewBox="0 0 200.000000 209.000000"
 preserveAspectRatio="xMidYMid meet">

<g transform="translate(0.000000,209.000000) scale(0.100000,-0.100000)"
fill="#000000" stroke="none">
<path d="M958 1874 c-4 -3 16 -42 44 -87 194 -316 273 -439 276 -426 2 13 -42
182 -105 398 -23 77 -33 95 -55 107 -26 14 -149 20 -160 8z"/>
<path d="M648 1287 c-98 -95 -182 -183 -187 -197 -13 -38 34 -157 66 -167 6
-2 52 69 101 159 50 90 115 208 146 262 31 55 55 103 54 107 -2 5 -83 -69
-180 -164z"/>
<path d="M970 1253 c-30 -53 -56 -100 -58 -105 -2 -4 51 -8 117 -8 67 0 121 3
121 6 0 12 -111 204 -118 204 -4 0 -32 -44 -62 -97z"/>
<path d="M950 933 c0 -5 108 -39 241 -77 192 -56 246 -68 267 -60 27 9 114
122 106 136 -7 10 -614 10 -614 1z"/>
<path d="M183 463 c-25 -10 -13 -22 13 -13 17 7 32 7 45 0 34 -19 22 -51 -26
-68 l-30 -10 27 -1 c26 -1 58 -24 58 -41 0 -23 -35 -42 -72 -38 -21 2 -38 0
-38 -4 0 -15 88 -8 104 8 22 21 20 51 -4 66 -19 12 -19 13 2 35 20 21 20 24 4
48 -16 24 -50 32 -83 18z"/>
<path d="M490 375 l0 -97 56 4 c66 6 85 22 91 80 7 64 -24 99 -95 106 l-52 5
0 -98z m110 55 c27 -27 27 -90 1 -114 -11 -10 -35 -19 -53 -19 l-33 -2 -3 78
-3 77 36 0 c22 0 43 -8 55 -20z"/>
<path d="M868 459 c-11 -6 -18 -22 -18 -40 0 -25 7 -33 45 -51 47 -23 57 -46
30 -68 -9 -8 -29 -10 -50 -7 -19 3 -35 2 -35 -4 0 -18 86 -10 104 10 26 29 16
54 -32 76 -69 32 -70 75 -1 75 24 0 38 4 34 10 -8 13 -55 12 -77 -1z"/>
<path d="M1173 375 c0 -55 2 -83 4 -63 2 20 10 41 17 48 13 10 28 -5 83 -79 2
-2 6 -2 9 2 4 3 -7 23 -23 44 -45 57 -45 57 -8 99 49 55 35 55 -15 0 -24 -25
-46 -46 -51 -46 -4 0 -10 21 -12 48 -2 26 -3 2 -4 -53z"/>
<path d="M1528 428 c-9 -24 -25 -67 -37 -95 -11 -29 -17 -53 -12 -53 5 0 14
14 20 30 9 27 14 30 51 30 37 0 43 -3 53 -30 6 -16 15 -30 20 -30 10 0 10 0
-35 113 -17 42 -33 77 -37 77 -4 0 -14 -19 -23 -42z m51 -60 c1 -5 -12 -8 -29
-8 -35 0 -34 -3 -14 46 l17 39 13 -35 c7 -19 13 -38 13 -42z"/>
<path d="M1830 375 c0 -57 4 -95 10 -95 6 0 10 38 10 95 0 57 -4 95 -10 95 -6
0 -10 -38 -10 -95z"/>
</g>
</svg>
